<svg xmlns="http://www.w3.org/2000/svg" width="50" height="50" viewBox="0 0 390.638 481.413">
  <g id="Group_13" data-name="Group 13" transform="translate(-142.959 -1007.121)">
    <path id="Path_4" data-name="Path 4" d="M22.413-41.7c-5.169,11,113.656-82.2,118.177-79.61,1.094.626,0,176.7,0,176.7l131.2,3.883s-127.04,89.676-127.919,91.26c-3.23,5.825.9,116.443-3.281,119.739C131.55,277.387,29.517,355.7,29.517,355.7S27.582-52.7,22.413-41.7Z" transform="translate(120.709 1132.831)" fill="#fff"/>
    <g id="Path_5" data-name="Path 5" transform="translate(261.701 1215.619)" fill="#c2410c">
      <path d="M 154.7831726074219 270.2177124023438 C 154.7356567382812 269.8392944335938 154.6859436035156 269.3759460449219 154.6367492675781 268.8101806640625 C 154.4888153076172 267.1087341308594 154.3720092773438 264.7929382324219 154.2895660400391 261.9271240234375 C 154.1363830566406 256.6046142578125 154.0953216552734 249.3904876708984 154.1640014648438 239.8726196289062 C 154.2914428710938 222.2096099853516 154.7822570800781 199.5050506591797 155.2568817138672 177.5480499267578 C 155.7023773193359 156.9389343261719 156.1231994628906 137.4726715087891 156.2518157958984 122.3859252929688 C 156.4691925048828 96.89592742919922 155.7047576904297 95.51755523681641 155.1989440917969 94.60542297363281 C 154.6467590332031 93.6097412109375 153.5968780517578 93.48767852783203 152.9021911621094 93.40692901611328 C 152.3857574462891 93.34686279296875 151.6768188476562 93.29399108886719 150.7348785400391 93.2452392578125 C 149.0187530517578 93.15648651123047 146.5051879882812 93.08255004882812 143.2640075683594 93.02561187744141 C 137.4385070800781 92.92317962646484 129.0558776855469 92.87129974365234 118.348876953125 92.87129974365234 C 86.70179748535156 92.87129974365234 42.19411468505859 93.32511138916016 25.86397743225098 93.50417327880859 L 154.6188201904297 0.7624891996383667 L 155.4592590332031 0.1571141928434372 L 155.4498138427734 -0.8786358237266541 C 155.4471893310547 -1.165510773658752 155.1858825683594 -29.90707397460938 155.0482482910156 -58.92770004272461 C 154.9674377441406 -75.96894836425781 154.9443817138672 -89.76957702636719 154.9798126220703 -99.94607543945312 C 155.0282287597656 -113.842155456543 155.1819610595703 -118.4518280029297 155.2874450683594 -119.9646911621094 C 162.2038421630859 -124.7000198364258 203.7734680175781 -155.8300628662109 246.0678100585938 -187.5429534912109 C 255.9907073974609 -194.9832458496094 264.4386291503906 -201.3176116943359 268.769287109375 -204.5496368408203 C 268.7976989746094 -195.4442596435547 268.8409423828125 -171.1417846679688 268.8963928222656 -139.9533233642578 C 269.0758056640625 -39.02264404296875 269.4098510742188 148.84033203125 269.8950500488281 185.45849609375 C 269.860595703125 185.7405548095703 269.2555236816406 186.8528442382812 266.8727416992188 188.6784210205078 C 265.1957397460938 189.9632415771484 263.5445556640625 190.914306640625 263.528076171875 190.9237976074219 L 263.4078674316406 190.9927368164062 L 263.2983703613281 191.0775451660156 C 263.0478820800781 191.2716827392578 237.9464416503906 210.7119293212891 211.8479461669922 230.2161712646484 C 196.5289459228516 241.6644897460938 183.8713836669922 250.8927459716797 174.2266998291016 257.6445007324219 C 168.5175018310547 261.6412353515625 163.8214416503906 264.7984924316406 160.2689361572266 267.0286254882812 C 157.6383056640625 268.6799926757812 155.9126129150391 269.650146484375 154.7831726074219 270.2177124023438 Z" stroke="none"/>
      <path d="M 266.7803344726562 -200.5692596435547 C 261.8109436035156 -196.8520355224609 254.3681945800781 -191.2714080810547 246.2813110351562 -185.2078247070312 C 229.0536956787109 -172.2904510498047 207.6132507324219 -156.2143859863281 189.5952453613281 -142.7728271484375 C 167.65625 -126.40625 160.0555267333984 -120.8642730712891 157.2298889160156 -118.8741607666016 C 157.1344604492188 -116.7178192138672 157.0166931152344 -111.5631866455078 156.9775695800781 -99.27101135253906 C 156.945068359375 -89.05319213867188 156.9697570800781 -75.29289245605469 157.0509490966797 -58.37220001220703 C 157.1891937255859 -29.55200958251953 157.4471282958984 -1.180137634277344 157.4496917724609 -0.8968887329101562 L 157.4686279296875 1.174613952636719 L 32.15634155273438 91.43666839599609 C 51.75599670410156 91.23138427734375 90.15298461914062 90.87133026123047 118.348876953125 90.87123870849609 C 129.0673828125 90.87123870849609 137.4618835449219 90.92324066162109 143.2991333007812 91.02586364746094 C 146.5630035400391 91.08323669433594 149.0995025634766 91.15792846679688 150.8381958007812 91.2479248046875 C 151.8231964111328 91.29886627197266 152.5739440917969 91.35523986816406 153.1331939697266 91.42030334472656 C 153.96044921875 91.51648712158203 155.8976898193359 91.74173736572266 156.9479370117188 93.63549041748047 C 157.697998046875 94.98793029785156 158.4735717773438 96.38648986816406 158.2517547607422 122.4029846191406 C 158.1230010986328 137.5028076171875 157.7020721435547 156.9754333496094 157.2564392089844 177.59130859375 C 156.7899475097656 199.1710510253906 156.3075714111328 221.4854888916016 156.1706237792969 239.0008697509766 C 156.0969390869141 248.4251708984375 156.1280059814453 255.6261138916016 156.2655639648438 261.01513671875 C 156.3313903808594 263.593994140625 156.4179382324219 265.5294494628906 156.508056640625 266.9786376953125 C 157.3032531738281 266.511474609375 158.2462768554688 265.9386596679688 159.3619384765625 265.2364196777344 C 162.9071960449219 263.0048828125 167.5885620117188 259.8530578613281 173.2760620117188 255.8686065673828 C 182.9120788574219 249.117919921875 195.5392456054688 239.9089202880859 210.806884765625 228.4973602294922 C 236.8335723876953 209.0441131591797 261.8240051269531 189.6898040771484 262.0733642578125 189.4966125488281 L 262.2891845703125 189.3287353515625 L 262.5295104980469 189.1908569335938 C 262.5424499511719 189.1834259033203 263.8353271484375 188.4358673095703 265.2391357421875 187.40380859375 C 266.953369140625 186.1435852050781 267.6436462402344 185.341064453125 267.8889770507812 185.0044250488281 C 267.4069519042969 147.2486572265625 267.0750427246094 -39.44644165039062 266.8963928222656 -139.9498291015625 C 266.8475952148438 -167.3749389648438 266.808349609375 -189.4528045654297 266.7803344726562 -200.5692596435547 M 270.7480163574219 -208.4988555908203 C 270.7480773925781 -208.4988555908203 270.7481384277344 -208.4988250732422 270.7481994628906 -208.4988250732422 C 270.8408203125 -208.4725189208984 271.2171936035156 134.3427429199219 271.89501953125 185.4422302246094 C 271.9343872070312 188.4066772460938 264.5232543945312 192.6585540771484 264.5232543945312 192.6585540771484 C 264.5232543945312 192.6585540771484 164.2828063964844 270.3250732421875 153.4498748779297 272.9139404296875 C 149.2640075683594 269.61767578125 156.6802520751953 101.4004211425781 153.4498748779297 95.57542419433594 C 153.1569671630859 95.0472412109375 138.1870574951172 94.8712158203125 118.348876953125 94.87126159667969 C 78.67977905273438 94.87134552001953 19.56649780273438 95.57542419433594 19.56649780273438 95.57542419433594 L 153.4498748779297 -0.860321044921875 C 153.4498748779297 -0.860321044921875 152.3559417724609 -120.523193359375 153.4498748779297 -121.1496429443359 C 157.968994140625 -123.7376556396484 270.5345153808594 -208.4999542236328 270.7480163574219 -208.4988555908203 Z" stroke="none" fill="#c2410c"/>
    </g>
  </g>
</svg>
