<svg width="130" height="60" viewBox="0 0 949 254" fill="none" xmlns="http://www.w3.org/2000/svg">
<path fill-rule="evenodd" clip-rule="evenodd" d="M129.107 0C57.7141 0 0 58.2081 0 130.219C0 187.782 36.9794 236.507 88.2796 253.753C94.6934 255.049 97.0428 250.951 97.0428 247.503C97.0428 244.485 96.8314 234.137 96.8314 223.355C60.917 231.118 53.4382 207.832 53.4382 207.832C47.6665 192.74 39.1147 188.861 39.1147 188.861C27.3599 180.884 39.9709 180.884 39.9709 180.884C53.01 181.747 59.852 194.251 59.852 194.251C71.3927 214.084 89.9894 208.48 97.4709 205.03C98.5386 196.622 101.961 190.801 105.595 187.568C76.9503 184.549 46.8129 173.338 46.8129 123.319C46.8129 109.09 51.9397 97.4483 60.0634 88.3943C58.7817 85.1611 54.2917 71.7917 61.3478 53.898C61.3478 53.898 72.2489 50.4479 96.8287 67.2647C107.352 64.4143 118.205 62.9643 129.107 62.952C140.008 62.952 151.12 64.4628 161.382 67.2647C185.965 50.4479 196.866 53.898 196.866 53.898C203.922 71.7917 199.429 85.1611 198.147 88.3943C206.485 97.4483 211.401 109.09 211.401 123.319C211.401 173.338 181.263 184.332 152.405 187.568C157.109 191.663 161.168 199.424 161.168 211.713C161.168 229.176 160.957 243.191 160.957 247.501C160.957 250.951 163.309 255.049 169.72 253.756C221.02 236.505 257.999 187.782 257.999 130.219C258.211 58.2081 200.285 0 129.107 0Z" fill="#C2410C"/>
<path d="M418.465 65.3334C388.732 72.9334 374.598 94.5334 372.732 135.333C371.132 170.8 379.932 194.933 398.998 207.2C410.865 214.933 420.598 217.2 440.998 217.333C459.398 217.333 471.532 214.8 481.398 208.667L485.665 206V168V130H458.998H432.198L432.598 143.6L432.998 157.333L443.398 157.733L453.665 158.133V172.533V186.933L445.532 187.867C428.598 189.867 416.065 183.867 409.932 170.933C404.065 158.4 402.998 132.8 407.798 116.8C410.332 108.267 417.532 99.8667 425.665 96.2667C430.598 94 434.198 93.4667 445.665 93.6C453.798 93.7334 462.332 94.6667 466.065 95.7334C473.532 98.1334 473.398 98.1334 476.598 85.3334C480.332 70.4 480.332 70.5334 470.065 67.3334C457.932 63.4667 429.798 62.5334 418.465 65.3334Z" fill="#C2410C"/>
<path d="M627.665 70.2667C627.265 71.2 627.132 104.133 627.265 143.333L627.665 214.667H642.998H658.332L658.732 183.6L658.998 152.667H679.665H700.332V182.267C700.332 198.667 700.865 212.8 701.398 213.733C702.198 214.933 706.332 215.333 717.132 215.067L731.665 214.667V142V69.3333L717.132 68.9333C706.332 68.6667 702.198 69.0667 701.398 70.2667C700.865 71.2 700.332 83.6 700.332 97.6V123.333H679.665H658.998L658.732 96.2667L658.332 69.3333L643.265 68.9333C632.065 68.6667 628.065 69.0667 627.665 70.2667Z" fill="#C2410C"/>
<path d="M852.997 70.2667C852.597 71.2 852.464 104.133 852.597 143.333L852.997 214.667H864.33C875.13 214.667 875.664 214.533 876.064 211.733C876.597 208 876.33 208 884.064 211.867C902.73 221.2 924.73 219.6 935.93 207.867C943.264 200.267 946.864 188.8 947.93 170C949.664 138.8 941.664 120.4 924.064 114.533C915.13 111.6 899.397 112.533 890.73 116.4L884.33 119.2L884.064 94.2667L883.664 69.3333L868.597 68.9333C857.397 68.6667 853.397 69.0667 852.997 70.2667ZM908.197 140C914.064 142.933 916.33 150.4 916.33 166.133C916.33 179.867 914.73 186.4 910.33 190C907.53 192.4 896.197 192.533 889.397 190.133L884.33 188.4V165.2C884.33 152.4 884.464 142 884.73 142C884.864 142 887.397 141.067 890.33 140C897.264 137.6 903.53 137.467 908.197 140Z" fill="#C2410C"/>
<path d="M507.533 75.2001C501.799 78.6667 498.466 87.2001 500.333 93.8667C504.466 109.2 525.266 111.867 532.333 97.8667C535.533 91.7334 535.666 88.8001 533.133 82.6667C529.266 73.6001 516.333 69.8667 507.533 75.2001Z" fill="#C2410C"/>
<path d="M558.997 101.867V116.4L551.397 118.267L543.664 120.133V130.667V141.333L551.264 141.733L558.731 142.133L559.264 168.4C559.664 193.333 559.797 195.067 562.997 201.333C567.664 210.667 574.731 215.2 587.264 217.067C594.997 218.133 598.731 218 604.997 216.533L612.997 214.667V203.333V192L608.331 191.867C598.064 191.6 596.197 191.2 593.664 188.667C591.264 186.267 590.997 184.267 590.997 164V142.133L602.064 141.733L612.997 141.333V128.667V116L602.064 115.6L590.997 115.2V101.333V87.3333H574.997H558.997V101.867Z" fill="#C2410C"/>
<path d="M501.132 117.467C500.732 118.667 500.332 140.133 500.332 165.2C500.332 199.867 500.732 211.333 502.065 213.067C503.399 215.067 505.665 215.333 517.665 215.067L531.665 214.667L532.065 164.933L532.332 115.333H517.132C504.465 115.333 501.799 115.733 501.132 117.467Z" fill="#C2410C"/>
<path d="M746.198 117.2C745.798 118.267 745.665 136.133 745.932 156.933C746.332 189.6 746.732 195.333 748.732 200C754.465 212.8 763.665 217.333 782.998 217.333C795.665 217.2 797.398 216.8 814.598 209.2C815.398 208.8 816.332 209.733 816.598 211.6C816.998 214.533 817.532 214.667 827.665 214.667H838.332V165.333V116H822.998H807.665L807.265 151.6L806.998 187.333L802.732 189.467C800.332 190.667 795.265 191.733 791.398 191.867C785.798 192 783.798 191.467 781.398 188.933C778.332 186 778.332 185.333 777.932 150.667L777.532 115.333H762.198C750.198 115.333 746.732 115.733 746.198 117.2Z" fill="#C2410C"/>
</svg>
